<svg width="207" height="41" viewBox="0 0 207 41" fill="none" xmlns="http://www.w3.org/2000/svg">
<path opacity="0.5" d="M40.0652 1.75671L30.2601 36.4917C30.2102 36.6494 30.0108 36.6967 29.8945 36.5863L23.3301 30.3583L28.2492 12.9514C28.2991 12.7937 28.1495 12.6518 27.9833 12.6991L9.63617 17.3662L3.10498 11.1697C2.98865 11.0593 3.03851 10.8701 3.20469 10.8228L39.7993 1.50444C39.9655 1.47291 40.115 1.61481 40.0652 1.75671Z" fill="#00B37E"/>
<path opacity="0.5" d="M23.3297 30.358L20.8037 39.3452C20.7538 39.5029 20.5544 39.5502 20.4381 39.4398L0.0634003 20.1251C-0.0529313 20.0147 -0.00307518 19.8255 0.163113 19.7782L9.63583 17.3658L23.3297 30.358Z" fill="#00B37E"/>
<path d="M28.2484 12.9511L23.3292 30.358L9.63533 17.3659L27.9825 12.6988C28.1487 12.6515 28.2982 12.7934 28.2484 12.9511Z" fill="#00B37E"/>
<path d="M63.2741 29H59.3139L59.3389 26.0767H63.2741C64.2569 26.0767 65.0856 25.856 65.7602 25.4146C66.4348 24.9648 66.9428 24.311 67.2843 23.4532C67.6341 22.5953 67.809 21.5584 67.809 20.3425V19.4555C67.809 18.5227 67.7091 17.7023 67.5092 16.9944C67.3176 16.2865 67.0303 15.691 66.6472 15.2079C66.2641 14.7249 65.7935 14.3626 65.2355 14.121C64.6775 13.8712 64.0362 13.7462 63.3116 13.7462H59.2389V10.8104H63.3116C64.5276 10.8104 65.6394 11.0186 66.6472 11.4351C67.6633 11.8432 68.5419 12.4303 69.2832 13.1966C70.0244 13.9628 70.5949 14.8789 70.9947 15.945C71.4028 17.0027 71.6068 18.1812 71.6068 19.4805V20.3425C71.6068 21.6334 71.4028 22.8119 70.9947 23.8779C70.5949 24.944 70.0244 25.8601 69.2832 26.6264C68.5503 27.3843 67.6716 27.9714 66.6472 28.3879C65.6311 28.796 64.5067 29 63.2741 29ZM61.4377 10.8104V29H57.6898V10.8104H61.4377ZM81.6136 10.8104V29H77.8782V10.8104H81.6136ZM87.2104 10.8104V13.7462H72.3689V10.8104H87.2104ZM96.7549 10.8104H99.9281L104.6 24.1653L109.273 10.8104H112.446L105.875 29H103.326L96.7549 10.8104ZM95.0434 10.8104H98.2041L98.7788 23.828V29H95.0434V10.8104ZM110.997 10.8104H114.17V29H110.422V23.828L110.997 10.8104ZM116.656 22.3788V22.1164C116.656 21.1253 116.798 20.2134 117.081 19.3805C117.364 18.5393 117.776 17.8106 118.318 17.1943C118.859 16.578 119.525 16.0991 120.316 15.7576C121.108 15.4078 122.015 15.2329 123.04 15.2329C124.064 15.2329 124.976 15.4078 125.776 15.7576C126.575 16.0991 127.246 16.578 127.787 17.1943C128.337 17.8106 128.753 18.5393 129.036 19.3805C129.32 20.2134 129.461 21.1253 129.461 22.1164V22.3788C129.461 23.3616 129.32 24.2735 129.036 25.1147C128.753 25.9476 128.337 26.6763 127.787 27.301C127.246 27.9173 126.579 28.3962 125.788 28.7377C124.997 29.0791 124.089 29.2499 123.065 29.2499C122.04 29.2499 121.128 29.0791 120.329 28.7377C119.538 28.3962 118.867 27.9173 118.318 27.301C117.776 26.6763 117.364 25.9476 117.081 25.1147C116.798 24.2735 116.656 23.3616 116.656 22.3788ZM120.254 22.1164V22.3788C120.254 22.9451 120.304 23.474 120.404 23.9654C120.504 24.4568 120.662 24.8899 120.879 25.2646C121.103 25.6311 121.395 25.9184 121.753 26.1266C122.111 26.3349 122.548 26.439 123.065 26.439C123.565 26.439 123.993 26.3349 124.352 26.1266C124.71 25.9184 124.997 25.6311 125.214 25.2646C125.43 24.8899 125.588 24.4568 125.688 23.9654C125.797 23.474 125.851 22.9451 125.851 22.3788V22.1164C125.851 21.5668 125.797 21.0504 125.688 20.5673C125.588 20.076 125.426 19.6429 125.201 19.2681C124.985 18.885 124.697 18.5851 124.339 18.3686C123.981 18.1521 123.548 18.0438 123.04 18.0438C122.532 18.0438 122.099 18.1521 121.741 18.3686C121.391 18.5851 121.103 18.885 120.879 19.2681C120.662 19.6429 120.504 20.076 120.404 20.5673C120.304 21.0504 120.254 21.5668 120.254 22.1164ZM135.195 18.3686V29H131.597V15.4828H134.97L135.195 18.3686ZM134.671 21.7666H133.696C133.696 20.7672 133.825 19.8677 134.084 19.0682C134.342 18.2603 134.704 17.5732 135.17 17.0069C135.637 16.4322 136.191 15.995 136.832 15.6951C137.482 15.387 138.206 15.2329 139.006 15.2329C139.639 15.2329 140.217 15.3245 140.742 15.5077C141.267 15.691 141.717 15.9825 142.091 16.3822C142.475 16.782 142.766 17.3109 142.966 17.9688C143.174 18.6268 143.278 19.4305 143.278 20.3799V29H139.655V20.3675C139.655 19.7678 139.572 19.3014 139.405 18.9683C139.239 18.6351 138.993 18.4019 138.668 18.2687C138.352 18.1271 137.96 18.0563 137.494 18.0563C137.011 18.0563 136.59 18.1521 136.232 18.3436C135.882 18.5352 135.591 18.8017 135.358 19.1432C135.133 19.4763 134.962 19.8677 134.846 20.3175C134.729 20.7672 134.671 21.2503 134.671 21.7666ZM152.236 29.2499C151.186 29.2499 150.245 29.0833 149.412 28.7501C148.579 28.4087 147.871 27.9381 147.288 27.3385C146.714 26.7388 146.272 26.0434 145.964 25.2521C145.656 24.4526 145.502 23.6031 145.502 22.7036V22.2039C145.502 21.1795 145.648 20.2425 145.939 19.393C146.231 18.5435 146.647 17.8064 147.188 17.1818C147.738 16.5571 148.404 16.0782 149.187 15.7451C149.97 15.4036 150.853 15.2329 151.836 15.2329C152.794 15.2329 153.643 15.3911 154.384 15.7076C155.126 16.0241 155.746 16.4739 156.246 17.0569C156.754 17.6398 157.137 18.3394 157.395 19.1556C157.653 19.9635 157.782 20.863 157.782 21.8541V23.3532H147.039V20.9546H154.247V20.6798C154.247 20.1801 154.155 19.7345 153.972 19.343C153.797 18.9433 153.531 18.6268 153.173 18.3936C152.814 18.1604 152.356 18.0438 151.798 18.0438C151.324 18.0438 150.916 18.1479 150.574 18.3561C150.233 18.5643 149.954 18.8558 149.737 19.2306C149.529 19.6054 149.371 20.0468 149.262 20.5548C149.162 21.0546 149.112 21.6042 149.112 22.2039V22.7036C149.112 23.245 149.187 23.7447 149.337 24.2028C149.495 24.6608 149.716 25.0564 149.999 25.3896C150.291 25.7227 150.641 25.9809 151.049 26.1641C151.465 26.3474 151.936 26.439 152.46 26.439C153.11 26.439 153.714 26.314 154.272 26.0642C154.838 25.806 155.325 25.4187 155.734 24.9024L157.483 26.8013C157.199 27.2094 156.812 27.6008 156.321 27.9756C155.838 28.3504 155.255 28.6585 154.572 28.9001C153.889 29.1333 153.11 29.2499 152.236 29.2499ZM163.667 27.4759L167.252 15.4828H171.112L165.678 31.0363C165.561 31.3778 165.403 31.7443 165.203 32.1357C165.012 32.5271 164.749 32.8978 164.416 33.2476C164.091 33.6057 163.679 33.8972 163.179 34.1221C162.688 34.3469 162.084 34.4594 161.368 34.4594C161.026 34.4594 160.747 34.4385 160.531 34.3969C160.314 34.3553 160.056 34.297 159.756 34.222V31.586C159.848 31.586 159.944 31.586 160.044 31.586C160.144 31.5943 160.239 31.5985 160.331 31.5985C160.806 31.5985 161.193 31.5444 161.493 31.4361C161.793 31.3278 162.034 31.1613 162.217 30.9364C162.401 30.7198 162.546 30.4367 162.655 30.0869L163.667 27.4759ZM162.167 15.4828L165.103 25.2771L165.615 29.0874L163.167 29.3498L158.307 15.4828H162.167ZM183.518 26.3765L186.516 15.4828H190.276L185.716 29H183.443L183.518 26.3765ZM181.456 15.4828L184.467 26.389L184.53 29H182.243L177.683 15.4828H181.456ZM204.181 26.1891V29H191.738V26.6014L197.622 20.2925C198.213 19.6345 198.68 19.0557 199.021 18.556C199.363 18.0479 199.608 17.594 199.758 17.1943C199.917 16.7862 199.996 16.3989 199.996 16.0324C199.996 15.4828 199.904 15.0122 199.721 14.6207C199.538 14.221 199.267 13.9128 198.909 13.6963C198.559 13.4797 198.126 13.3715 197.61 13.3715C197.06 13.3715 196.585 13.5047 196.185 13.7712C195.794 14.0377 195.494 14.4084 195.286 14.8831C195.086 15.3578 194.986 15.895 194.986 16.4947H191.376C191.376 15.412 191.634 14.4209 192.15 13.5214C192.667 12.6136 193.395 11.8931 194.336 11.3601C195.278 10.8188 196.394 10.5481 197.685 10.5481C198.959 10.5481 200.033 10.7563 200.908 11.1727C201.79 11.5808 202.457 12.1722 202.907 12.9467C203.365 13.7129 203.594 14.6291 203.594 15.6951C203.594 16.2948 203.498 16.882 203.306 17.4566C203.115 18.023 202.84 18.5893 202.482 19.1556C202.132 19.7137 201.707 20.28 201.207 20.8547C200.708 21.4293 200.154 22.0248 199.546 22.6411L196.385 26.1891H204.181Z" fill="#E1E1E6"/>
</svg>
